<svg width="100" height="100" viewBox="0 0 100 100" fill="none" xmlns="http://www.w3.org/2000/svg">
<path d="M67.4583 8.33337H32.5416C17.3749 8.33337 8.33325 17.375 8.33325 32.5417V67.4167C8.33325 82.625 17.3749 91.6667 32.5416 91.6667H67.4166C82.5833 91.6667 91.6249 82.625 91.6249 67.4584V32.5417C91.6666 17.375 82.6249 8.33337 67.4583 8.33337ZM61.6249 52.2084L46.9166 66.9167C46.2916 67.5417 45.4999 67.8334 44.7082 67.8334C43.9166 67.8334 43.1249 67.5417 42.4999 66.9167C41.2916 65.7084 41.2916 63.7084 42.4999 62.5L54.9999 50L42.4999 37.5C41.2916 36.2917 41.2916 34.2917 42.4999 33.0834C43.7082 31.875 45.7083 31.875 46.9166 33.0834L61.6249 47.7917C62.8749 49 62.8749 51 61.6249 52.2084Z" fill="black"/>
</svg>
