<svg width="100" height="100" viewBox="0 0 100 100" fill="none" xmlns="http://www.w3.org/2000/svg">
<path d="M32.5417 8.33337H67.4584C82.625 8.33337 91.6667 17.375 91.6667 32.5417V67.4167C91.6667 82.625 82.625 91.6667 67.4584 91.6667H32.5834C17.4167 91.6667 8.37502 82.625 8.37502 67.4584V32.5417C8.33336 17.375 17.375 8.33337 32.5417 8.33337ZM38.375 52.2084L53.0834 66.9167C53.7084 67.5417 54.5 67.8334 55.2917 67.8334C56.0834 67.8334 56.875 67.5417 57.5 66.9167C58.7084 65.7084 58.7084 63.7084 57.5 62.5L45 50L57.5 37.5C58.7084 36.2917 58.7084 34.2917 57.5 33.0834C56.2917 31.875 54.2917 31.875 53.0834 33.0834L38.375 47.7917C37.125 49 37.125 51 38.375 52.2084Z" fill="white"/>
</svg>
