<svg width="84" height="84" viewBox="0 0 84 84" fill="none" xmlns="http://www.w3.org/2000/svg">
<path d="M24.5417 0.333374H59.4584C74.6251 0.333374 83.6667 9.37504 83.6667 24.5417V59.4167C83.6667 74.625 74.6251 83.6667 59.4584 83.6667H24.5834C9.41675 83.6667 0.375086 74.625 0.375086 59.4584V24.5417C0.333419 9.37504 9.37508 0.333374 24.5417 0.333374ZM30.3751 44.2084L45.0834 58.9167C45.7084 59.5417 46.5001 59.8334 47.2918 59.8334C48.0834 59.8334 48.8751 59.5417 49.5001 58.9167C50.7084 57.7084 50.7084 55.7084 49.5001 54.5L37.0001 42L49.5001 29.5C50.7084 28.2917 50.7084 26.2917 49.5001 25.0834C48.2918 23.875 46.2917 23.875 45.0834 25.0834L30.3751 39.7917C29.1251 41 29.1251 43 30.3751 44.2084Z" fill="black"/>
</svg>
