<svg width="100" height="100" viewBox="0 0 100 100" fill="none" xmlns="http://www.w3.org/2000/svg">
<path d="M67.4583 8.33337H32.5417C17.375 8.33337 8.33334 17.375 8.33334 32.5417V67.4167C8.33334 82.625 17.375 91.6667 32.5417 91.6667H67.4167C82.5833 91.6667 91.625 82.625 91.625 67.4584V32.5417C91.6667 17.375 82.625 8.33337 67.4583 8.33337ZM61.625 52.2084L46.9167 66.9167C46.2917 67.5417 45.5 67.8334 44.7083 67.8334C43.9167 67.8334 43.125 67.5417 42.5 66.9167C41.2917 65.7084 41.2917 63.7084 42.5 62.5L55 50L42.5 37.5C41.2917 36.2917 41.2917 34.2917 42.5 33.0834C43.7083 31.875 45.7083 31.875 46.9167 33.0834L61.625 47.7917C62.875 49 62.875 51 61.625 52.2084Z" fill="#D87588"/>
</svg>
