<svg xmlns="http://www.w3.org/2000/svg" width="32" height="32" viewBox="0 0 32 32" fill="none">
<path d="M22.1333 18.6666C21.8666 18.5333 20.1333 17.7333 19.8666 17.6C19.6 17.4666 19.3333 17.4666 19.0666 17.7333C18.8 18 18.2666 18.8 18 19.0666C17.8666 19.3333 17.6 19.3333 17.3333 19.2C16.4 18.8 15.4666 18.2666 14.6666 17.6C14 16.9333 13.3333 16.1333 12.8 15.3333C12.6666 15.0666 12.8 14.8 12.9333 14.6666C13.0666 14.5333 13.2 14.2666 13.4666 14.1333C13.6 14 13.7333 13.7333 13.7333 13.6C13.8666 13.4666 13.8666 13.2 13.7333 13.0666C13.6 12.9333 12.9333 11.3333 12.6666 10.6666C12.5333 9.7333 12.2666 9.7333 12 9.7333H11.3333C11.0666 9.7333 10.6666 9.99997 10.5333 10.1333C9.73329 10.9333 9.33329 11.8666 9.33329 12.9333C9.46663 14.1333 9.86663 15.3333 10.6666 16.4C12.1333 18.5333 14 20.2666 16.2666 21.3333C16.9333 21.6 17.4666 21.8666 18.1333 22C18.8 22.2666 19.4666 22.2666 20.2666 22.1333C21.2 22 22 21.3333 22.5333 20.5333C22.8 20 22.8 19.4666 22.6666 18.9333L22.1333 18.6666ZM25.4666 6.5333C20.2666 1.3333 11.8666 1.3333 6.66663 6.5333C2.39996 10.8 1.59996 17.3333 4.53329 22.5333L2.66663 29.3333L9.73329 27.4666C11.7333 28.5333 13.8666 29.0666 16 29.0666C23.3333 29.0666 29.2 23.2 29.2 15.8666C29.3333 12.4 27.8666 9.06663 25.4666 6.5333ZM21.8666 25.2C20.1333 26.2666 18.1333 26.9333 16 26.9333C14 26.9333 12.1333 26.4 10.4 25.4666L9.99996 25.2L5.86663 26.2666L6.93329 22.2666L6.66663 21.8666C3.46663 16.5333 5.06663 9.86663 10.2666 6.5333C15.4666 3.19997 22.1333 4.9333 25.3333 9.99997C28.5333 15.2 27.0666 22 21.8666 25.2Z" fill="white"/>
</svg>